<?xml version="1.0" standalone="no"?>
<!DOCTYPE svg PUBLIC "-//W3C//DTD SVG 20010904//EN"
 "http://www.w3.org/TR/2001/REC-SVG-20010904/DTD/svg10.dtd">
<svg version="1.0" xmlns="http://www.w3.org/2000/svg"
 width="24.000000pt" height="24.000000pt" viewBox="0 0 24.000000 24.000000"
 preserveAspectRatio="xMidYMid meet">

<g transform="translate(0.000000,24.000000) scale(0.100000,-0.100000)"
fill="#000000" stroke="none">
<path d="M71 228 c-50 -27 -66 -63 -66 -146 l0 -77 77 0 c62 0 82 4 105 21 39
29 55 62 49 108 -9 76 -101 128 -165 94z m99 -13 c32 -17 60 -61 60 -95 0 -36
-30 -81 -64 -95 -21 -9 -52 -12 -88 -8 l-55 6 -6 54 c-7 68 7 110 47 134 38
23 67 24 106 4z"/>
<path d="M60 175 c-16 -19 -4 -67 23 -94 31 -29 79 -37 96 -17 19 22 -1 44
-42 48 -27 3 -31 7 -29 26 3 23 -13 52 -28 52 -4 0 -13 -7 -20 -15z m36 -28
c-7 -29 21 -58 49 -51 27 7 40 -9 21 -25 -9 -8 -22 -8 -46 0 -39 14 -69 71
-49 95 15 19 32 7 25 -19z"/>
</g>
</svg>
